<svg xmlns="http://www.w3.org/2000/svg" viewBox="0 2 31 28" fill="#5C5F62" x="0px" y="0px"><g data-name="check mark"><path d="M12.99991,6A4.00016,4.00016,0,0,1,13,14,4.00016,4.00016,0,0,1,12.99991,6ZM13,20.5A6.49966,6.49966,0,0,1,16.05,15H9.5A2.50091,2.50091,0,0,0,7,17.5v6A2.50091,2.50091,0,0,0,9.5,26h6.55A6.49974,6.49974,0,0,1,13,20.5ZM19.50013,26c-7.26449-.24221-7.267-10.75639-.00013-11C26.76633,15.23372,26.76749,25.76536,19.50013,26ZM21.68,18.61c-.3119.26677-2.91146,2.50122-3.15,2.7l-1.15-1.35a.50017.50017,0,0,0-.76.65l1.48,1.73a.51688.51688,0,0,0,.38005.17009c.22492.14518,3.55872-2.96784,3.85-3.14006C22.82353,18.957,22.16734,18.17535,21.68,18.61Z"/></g><text x="0" y="47" fill="#5C5F62" font-size="5px" font-weight="bold" font-family="'Helvetica Neue', Helvetica, Arial-Unicode, Arial, Sans-serif">Created by Zky Icon</text><text x="0" y="52" fill="#5C5F62" font-size="5px" font-weight="bold" font-family="'Helvetica Neue', Helvetica, Arial-Unicode, Arial, Sans-serif">from the Noun Project</text></svg>