<?xml version="1.0" encoding="utf-8"?>
<!-- Svg Vector Icons : http://www.onlinewebfonts.com/icon -->
<!DOCTYPE svg PUBLIC "-//W3C//DTD SVG 1.1//EN" "http://www.w3.org/Graphics/SVG/1.1/DTD/svg11.dtd">
<svg version="1.1" xmlns="http://www.w3.org/2000/svg" xmlns:xlink="http://www.w3.org/1999/xlink" width="20px" height="20px" viewBox="0 0 256 256" enable-background="new 0 0 20 20" xml:space="preserve">
<metadata> Svg Vector Icons : http://www.onlinewebfonts.com/icon </metadata>
<g><g><path fill="#5C5F62" d="M132.4,14.7v-0.2c-1.5,0-2.9,0.1-4.4,0.1c-1.5,0-2.9-0.1-4.4-0.1v0.2C64.2,17.2,10,45.4,10,123.7c0,30.1,8,52.7,21.2,69.4c0.5,17.9-8,33.9,5.3,44.6c13.9,11.3,30.6-5.7,51.1-10.1c11.5,3,23.6,4.6,36,5.1v0.2c1.5,0,2.9-0.1,4.4-0.1c1.5,0,2.9,0.1,4.4,0.1v-0.2c59.4-2.5,113.6-30.7,113.6-109C246,45.4,191.8,17.2,132.4,14.7z M75.6,136.8c-7.2,0-13.1-5.9-13.1-13.1c0-7.2,5.9-13.1,13.1-13.1c7.2,0,13.1,5.9,13.1,13.1C88.7,130.9,82.8,136.8,75.6,136.8z M128,136.8c-7.2,0-13.1-5.9-13.1-13.1c0-7.2,5.9-13.1,13.1-13.1c7.2,0,13.1,5.9,13.1,13.1C141.1,130.9,135.2,136.8,128,136.8z M180.5,136.8c-7.3,0-13.1-5.9-13.1-13.1c0-7.2,5.9-13.1,13.1-13.1c7.2,0,13.1,5.9,13.1,13.1C193.6,130.9,187.7,136.8,180.5,136.8z"/></g></g>
</svg>